<?xml version="1.0" encoding="utf-8"?>
<!-- Generator: Adobe Illustrator 16.0.0, SVG Export Plug-In . SVG Version: 6.00 Build 0)  -->
<!DOCTYPE svg PUBLIC "-//W3C//DTD SVG 1.1//EN" "http://www.w3.org/Graphics/SVG/1.1/DTD/svg11.dtd">
<svg version="1.1" id="Layer_1" xmlns="http://www.w3.org/2000/svg" xmlns:xlink="http://www.w3.org/1999/xlink" x="0px" y="0px"
	 width="1024px" height="1024px" viewBox="0 0 1024 1024" enable-background="new 0 0 1024 1024" xml:space="preserve">
<g>
	<path fill="#55B247" d="M793.132,493.373c0,140.606-113.989,254.587-254.599,254.587c-140.606,0-254.603-113.98-254.603-254.587
		c0-140.613,113.996-254.587,254.603-254.587C679.143,238.786,793.132,352.76,793.132,493.373z"/>
	<path fill="#57BFD0" d="M403.689,77.467c0,34.688-28.118,62.799-62.803,62.799s-62.803-28.11-62.803-62.799
		c0-34.681,28.118-62.799,62.803-62.799S403.689,42.786,403.689,77.467z"/>
	<path fill="#1F9D6D" d="M938.845,173.683c0,34.688-28.118,62.799-62.802,62.799c-34.685,0-62.803-28.11-62.803-62.799
		c0-34.681,28.118-62.799,62.803-62.799C910.727,110.884,938.845,139.002,938.845,173.683z"/>
	<path fill="#55B247" d="M1009.918,709.481c0,34.688-28.118,62.799-62.803,62.799s-62.803-28.11-62.803-62.799
		c0-34.681,28.118-62.799,62.803-62.799S1009.918,674.801,1009.918,709.481z"/>
	<path fill="#57BFD0" d="M523.762,946.533c0,34.688-28.118,62.799-62.803,62.799c-34.684,0-62.803-28.11-62.803-62.799
		c0-34.681,28.119-62.799,62.803-62.799C495.644,883.734,523.762,911.853,523.762,946.533z"/>
	<path fill="#1F9D6D" d="M139.688,556.172c0,34.681-28.118,62.799-62.803,62.799s-62.803-28.118-62.803-62.799
		c0-34.688,28.118-62.799,62.803-62.799S139.688,521.483,139.688,556.172z"/>
	<path fill="#FFFFFF" d="M654.096,493.373c0,63.817-51.738,115.559-115.563,115.559c-63.825,0-115.566-51.741-115.566-115.559
		c0-63.825,51.741-115.559,115.566-115.559C602.357,377.814,654.096,429.548,654.096,493.373z"/>
	<path fill="none" stroke="#FFFFFF" stroke-width="3" stroke-miterlimit="10" d="M538.533,346.917
		c8.193,0,16.229,0.674,24.056,1.968"/>
	<path fill="none" stroke="#FFFFFF" stroke-width="3" stroke-miterlimit="10" d="M538.533,639.829
		c-80.886,0-146.464-65.57-146.464-146.456"/>
	<path fill="none" stroke="#FFFFFF" stroke-width="3" stroke-miterlimit="10" d="M562.589,348.885
		c58.579,9.679,105.424,54.107,118.652,111.408"/>
	<path fill="#1F9D6D" d="M291.664,156.951c0,0-210.453,342.839,91.652,582.149c0,0-115.413-11.134-220.642-143.891
		c0,0,43.364-88.628-52.614-131.058c0,0,8.293-208.757,173.87-315.686C283.931,148.467,298.055,145.634,291.664,156.951z"/>
	<path fill="#57BFD0" d="M787.672,157.196c0,0-389.99-98.651-528.345,261.065c0,0-23.78-113.483,71.563-253.508
		c0,0,97.529,14.963,109.413-89.301c0,0,201.732-54.33,353.158,71.834C793.461,147.287,800.387,159.922,787.672,157.196z"/>
	<path fill="#1F9D6D" d="M940.564,611.772c0,0-32.858-400.929-417.989-415.432c0,0,99.681-59.223,263.021-14.327
		c0,0,17.401,97.12,119.904,74.63c0,0,116.688,173.295,46.315,357.396C951.816,614.039,942.104,624.683,940.564,611.772z"/>
	<path fill="#55B247" d="M539.088,905.038c0,0,374.69-146.403,278.184-519.535c0,0,85.312,78.527,89.121,247.879
		c0,0-88.057,44.513-37.127,136.265c0,0-132.573,161.465-329.125,146.823C540.141,916.47,527.162,910.214,539.088,905.038z"/>
	<path fill="#57BFD0" d="M145.606,622.172c0,0,256.042,310.279,580.407,102.127c0,0-47.978,105.558-207.674,162.039
		c0,0-69.774-69.767-141.046,7.26c0,0-194.778-75.557-242.221-266.854C135.073,626.743,136.969,612.454,145.606,622.172z"/>
	<circle fill="#ED2226" cx="538.531" cy="493.373" r="101.842"/>
	<g>
		<rect x="518.922" y="421.868" fill="#FFFFFF" width="39.214" height="143.01"/>
		<rect x="467.027" y="473.763" fill="#FFFFFF" width="143.011" height="39.214"/>
	</g>
</g>
</svg>
