

<svg
  xmlns="http://www.w3.org/2000/svg"
  viewBox="0 0 512 512"
  aria-labelledby="title"
 height="1em"
 width="1em"
  fill="currentColor"
>
  <title id="title">report</title>
  <path d="m426.29 33h-35.29v36.21c0 14.22-11.57 25.79-25.79 25.79h-218.42c-14.22 0-25.79-11.57-25.79-25.79v-36.21h-35.29c-15.83 0-28.71 12.88-28.71 28.72v421.57c0 15.83 12.88 28.71 28.71 28.71h340.58c15.83 0 28.71-12.88 28.71-28.71v-421.57c0-15.84-12.88-28.72-28.71-28.72zm-258.29 374h-32c-8.28 0-15-6.72-15-15s6.72-15 15-15h32c8.28 0 15 6.72 15 15s-6.72 15-15 15zm0-64h-32c-8.28 0-15-6.72-15-15s6.72-15 15-15h32c8.28 0 15 6.72 15 15s-6.72 15-15 15zm17-135c0-8.28 6.72-15 15-15h41v-41c0-8.28 6.72-15 15-15s15 6.72 15 15v41h41c8.28 0 15 6.72 15 15s-6.72 15-15 15h-41v41c0 8.28-6.72 15-15 15s-15-6.72-15-15v-41h-41c-8.28 0-15-6.72-15-15zm191 199h-136c-8.28 0-15-6.72-15-15s6.72-15 15-15h136c8.28 0 15 6.72 15 15s-6.72 15-15 15zm0-64h-136c-8.28 0-15-6.72-15-15s6.72-15 15-15h136c8.28 0 15 6.72 15 15s-6.72 15-15 15zm-15-343h-210v65h210z"/>
  </svg>
